<?xml version="1.0" encoding="utf-8"?>
<!-- Generator: Adobe Illustrator 21.1.0, SVG Export Plug-In . SVG Version: 6.00 Build 0)  -->
<svg version="1.1" xmlns="http://www.w3.org/2000/svg" xmlns:xlink="http://www.w3.org/1999/xlink" x="0px" y="0px"
	 viewBox="0 0 595.3 841.9" style="enable-background:new 0 0 595.3 841.9;" xml:space="preserve">
<style type="text/css">
	.st0{fill:none;stroke:#231F20;stroke-miterlimit:10;}
	.st1{fill:none;stroke:#231F20;stroke-width:1.0299;stroke-miterlimit:10;}
	.st2{fill:#231F20;}
	.st3{font-family:'MyriadPro-Regular';}
	.st4{font-size:12px;}
	.st5{fill:none;stroke:#231F20;stroke-width:1.0159;stroke-miterlimit:10;}
	.st6{fill:none;stroke:#231F20;stroke-width:0.5;stroke-miterlimit:10;}
	.st7{fill:none;stroke:#231F20;stroke-width:0.5;stroke-miterlimit:10;stroke-dasharray:1.5192,1.5192;}
	.st8{fill:none;stroke:#231F20;stroke-width:0.9806;stroke-miterlimit:10;}
</style>
<g id="Layer_2">
	<g>
		<path class="st0" d="M135.2,424.6l-9,8.1c-0.9,0.8-2.1,1.3-3.4,1.3h-17.1v30.5c0,1.6-1.3,2.9-2.9,2.9H85.3c-1.6,0-2.9-1.3-2.9-2.9
			V434H62.6c-1,0-1.9-0.3-2.8-0.8l-23.3-15.1c-1.4-0.9-2.3-2.5-2.3-4.2v-31.3c0-1.7,0.9-3.3,2.3-4.2l23.3-15.1
			c0.8-0.5,1.8-0.8,2.8-0.8h19.8v-30.5c0-1.6,1.3-2.9,2.9-2.9h17.5c1.6,0,2.9,1.3,2.9,2.9v30.5h17.1c1.3,0,2.5,0.5,3.4,1.3l9,8.1
			c1.1,1,1.7,2.3,1.7,3.8v45.3C136.8,422.3,136.2,423.6,135.2,424.6z"/>
		<path class="st1" d="M70.2,419.1H66c-1.7,0-3-1.3-3-3v-37.2c0-1.7,1.3-3,3-3h4.3c1.7,0,3,1.3,3,3v37.2
			C73.2,417.7,71.9,419.1,70.2,419.1z"/>
		<path class="st1" d="M122.1,419.1h-4.3c-1.7,0-3-1.3-3-3v-37.2c0-1.7,1.3-3,3-3h4.3c1.7,0,3,1.3,3,3v37.2
			C125.1,417.7,123.8,419.1,122.1,419.1z"/>
		<text transform="matrix(1 0 0 1 67.0958 497.167)" class="st2 st3 st4">version 0.1</text>
	</g>
	<path class="st0" d="M207.8,434h-19.4c-1.3,0-2.5-0.5-3.4-1.3l-9-8.1c-1.1-1-1.7-2.3-1.7-3.8v-45.3c0-1.4,0.6-2.8,1.7-3.8l9-8.1
		c0.9-0.8,2.1-1.3,3.4-1.3h19.4v-30.5c0-1.6,1.3-2.9,2.9-2.9h17.5c1.6,0,2.9,1.3,2.9,2.9v30.5h19.4c1.3,0,2.5,0.5,3.4,1.3l9,8.1
		c1.1,1,1.7,2.3,1.7,3.8v45.3c0,1.4-0.6,2.8-1.7,3.8l-9,8.1c-0.9,0.8-2.1,1.3-3.4,1.3h-19.4v30.5c0,1.6-1.3,2.9-2.9,2.9h-17.5
		c-1.6,0-2.9-1.3-2.9-2.9V434z"/>
	<path class="st1" d="M248.6,419.1h-5.5c-1.7,0-3-1.3-3-3v-37.2c0-1.7,1.3-3,3-3h5.5c1.7,0,3,1.3,3,3v37.2
		C251.6,417.7,250.3,419.1,248.6,419.1z"/>
	<path class="st1" d="M195.8,419.1h-5.5c-1.7,0-3-1.3-3-3v-37.2c0-1.7,1.3-3,3-3h5.5c1.7,0,3,1.3,3,3v37.2
		C198.8,417.7,197.5,419.1,195.8,419.1z"/>
	<text transform="matrix(1 0 0 1 192.5322 497.167)" class="st2 st3 st4">version 0.2</text>
	<text transform="matrix(1 0 0 1 329.8234 497.167)" class="st2 st3 st4">version 0.3</text>
	<text transform="matrix(1 0 0 1 452.0978 497.167)" class="st2 st3 st4">version 0.3B</text>
	<path class="st5" d="M386.5,419.4h-5.7c-1.6,0-2.8-1.3-2.8-2.8v-36.9c0-1.6,1.3-2.8,2.8-2.8h5.7c1.6,0,2.8,1.3,2.8,2.8v36.9
		C389.3,418.2,388,419.4,386.5,419.4z"/>
	<path class="st5" d="M332.6,419.4h-5.7c-1.6,0-2.8-1.3-2.8-2.8v-36.9c0-1.6,1.3-2.8,2.8-2.8h5.7c1.6,0,2.8,1.3,2.8,2.8v36.9
		C335.4,418.2,334.2,419.4,332.6,419.4z"/>
	<g>
		<g>
			<line class="st6" x1="450.6" y1="376.9" x2="450.6" y2="377.7"/>
			<line class="st7" x1="450.6" y1="379.2" x2="450.6" y2="417.9"/>
			<line class="st6" x1="450.6" y1="418.7" x2="450.6" y2="419.4"/>
		</g>
	</g>
	<g>
		<g>
			<line class="st6" x1="507.3" y1="376.9" x2="507.3" y2="377.7"/>
			<line class="st7" x1="507.3" y1="379.2" x2="507.3" y2="417.9"/>
			<line class="st6" x1="507.3" y1="418.7" x2="507.3" y2="419.4"/>
		</g>
	</g>
</g>
<g id="Layer_3">
	<polygon class="st8" points="510.1,362.7 490.3,362.7 490.3,331.6 467.6,331.6 467.6,362.7 447.8,362.7 433.6,376.9 433.6,419.4 
		447.8,433.6 467.6,433.6 467.6,464.8 490.3,464.8 490.3,433.6 510.1,433.6 524.3,419.4 524.3,376.9 	"/>
	<path class="st8" d="M386.1,362.7H368v-26.9c0-2.4-1.9-4.3-4.3-4.3h-14.2c-2.4,0-4.3,1.9-4.3,4.3v26.9h-18.1c-1.1,0-2.2,0.4-3,1.2
		l-11.7,11.7c-0.8,0.8-1.2,1.9-1.2,3v39c0,1.1,0.4,2.2,1.2,3l11.7,11.7c0.8,0.8,1.9,1.2,3,1.2h18.1v26.9c0,2.4,1.9,4.3,4.3,4.3h14.2
		c2.4,0,4.3-1.9,4.3-4.3v-26.9h18.1c1.1,0,2.2-0.4,3-1.2l11.7-11.7c0.8-0.8,1.2-1.9,1.2-3v-39c0-1.1-0.4-2.2-1.2-3L389.1,364
		C388.3,363.2,387.2,362.7,386.1,362.7z"/>
</g>
</svg>
