<?xml version="1.0" encoding="utf-8"?>
<!-- Generator: Adobe Illustrator 21.1.0, SVG Export Plug-In . SVG Version: 6.00 Build 0)  -->
<svg version="1.1" id="Layer_2" xmlns="http://www.w3.org/2000/svg" xmlns:xlink="http://www.w3.org/1999/xlink" x="0px" y="0px"
	 viewBox="0 0 595.3 841.9" style="enable-background:new 0 0 595.3 841.9;" xml:space="preserve">
<style type="text/css">
	.st0{fill:none;stroke:#000000;stroke-miterlimit:10;}
	.st1{fill:none;stroke:#000000;stroke-width:1.0299;stroke-miterlimit:10;}
	.st2{font-family:'MyriadPro-Regular';}
	.st3{font-size:12px;}
</style>
<path class="st0" d="M266,424.6l-9,8.1c-0.9,0.8-2.1,1.3-3.4,1.3h-17.1v30.5c0,1.6-1.3,2.9-2.9,2.9h-17.5c-1.6,0-2.9-1.3-2.9-2.9
	V434h-19.8c-1,0-1.9-0.3-2.8-0.8l-23.3-15.1c-1.4-0.9-2.3-2.5-2.3-4.2v-31.3c0-1.7,0.9-3.3,2.3-4.2l23.3-15.1
	c0.8-0.5,1.8-0.8,2.8-0.8h19.8v-30.5c0-1.6,1.3-2.9,2.9-2.9h17.5c1.6,0,2.9,1.3,2.9,2.9v30.5h17.1c1.3,0,2.5,0.5,3.4,1.3l9,8.1
	c1.1,1,1.7,2.3,1.7,3.8v45.3C267.6,422.3,267,423.6,266,424.6z"/>
<path class="st1" d="M201,419.1h-4.3c-1.7,0-3-1.3-3-3v-37.2c0-1.7,1.3-3,3-3h4.3c1.7,0,3,1.3,3,3v37.2
	C204,417.7,202.7,419.1,201,419.1z"/>
<path class="st1" d="M252.9,419.1h-4.3c-1.7,0-3-1.3-3-3v-37.2c0-1.7,1.3-3,3-3h4.3c1.7,0,3,1.3,3,3v37.2
	C255.9,417.7,254.5,419.1,252.9,419.1z"/>
<text transform="matrix(1 0 0 1 197.8723 497.167)" class="st2 st3">version 0.1</text>
<path class="st0" d="M373.5,434h-19.4c-1.3,0-2.5-0.5-3.4-1.3l-9-8.1c-1.1-1-1.7-2.3-1.7-3.8v-45.3c0-1.4,0.6-2.8,1.7-3.8l9-8.1
	c0.9-0.8,2.1-1.3,3.4-1.3h19.4v-30.5c0-1.6,1.3-2.9,2.9-2.9h17.5c1.6,0,2.9,1.3,2.9,2.9v30.5h19.4c1.3,0,2.5,0.5,3.4,1.3l9,8.1
	c1.1,1,1.7,2.3,1.7,3.8v45.3c0,1.4-0.6,2.8-1.7,3.8l-9,8.1c-0.9,0.8-2.1,1.3-3.4,1.3h-19.4v30.5c0,1.6-1.3,2.9-2.9,2.9h-17.5
	c-1.6,0-2.9-1.3-2.9-2.9V434z"/>
<path class="st1" d="M414.3,419.1h-5.5c-1.7,0-3-1.3-3-3v-37.2c0-1.7,1.3-3,3-3h5.5c1.7,0,3,1.3,3,3v37.2
	C417.3,417.7,415.9,419.1,414.3,419.1z"/>
<path class="st1" d="M361.5,419.1H356c-1.7,0-3-1.3-3-3v-37.2c0-1.7,1.3-3,3-3h5.5c1.7,0,3,1.3,3,3v37.2
	C364.5,417.7,363.1,419.1,361.5,419.1z"/>
<text transform="matrix(1 0 0 1 358.2057 497.167)" class="st2 st3">version 0.2</text>
</svg>
